<svg width="38" height="38" viewBox="0 0 38 38" fill="none" xmlns="http://www.w3.org/2000/svg">
<path d="M3.23546 26.5978C3.49278 27.2469 3.55006 27.9581 3.39996 28.64L1.53621 34.3975C1.47616 34.6894 1.49168 34.9919 1.58132 35.2762C1.67095 35.5605 1.83172 35.8172 2.04838 36.0219C2.26503 36.2267 2.5304 36.3727 2.81931 36.4461C3.10822 36.5195 3.41109 36.5179 3.69921 36.4415L9.67195 34.695C10.3155 34.5673 10.9819 34.6231 11.5952 34.856C15.3321 36.6011 19.5653 36.9703 23.5479 35.8985C27.5306 34.8266 31.0066 32.3826 33.3629 28.9977C35.7191 25.6127 36.8041 21.5043 36.4264 17.3973C36.0487 13.2903 34.2326 9.44872 31.2985 6.55027C28.3644 3.65181 24.5009 1.88278 20.3896 1.55528C16.2783 1.22779 12.1834 2.36288 8.82747 4.76028C5.47152 7.15769 3.07014 10.6633 2.04702 14.6587C1.02391 18.6541 1.44481 22.8825 3.23546 26.5978Z" fill="#A6B5B5" stroke="#718282" stroke-width="3" stroke-linecap="round" stroke-linejoin="round"/>
</svg>
