<svg width="23" height="38" viewBox="0 0 23 38" fill="none" xmlns="http://www.w3.org/2000/svg">
<path d="M17.295 20.5581L19.82 35.4791C19.8483 35.6548 19.8248 35.8354 19.7527 35.9967C19.6806 36.158 19.5633 36.2923 19.4166 36.3818C19.2698 36.4712 19.1005 36.5114 18.9314 36.4971C18.7622 36.4828 18.6012 36.4146 18.47 36.3016L12.5033 31.5992C12.2153 31.3733 11.8654 31.2512 11.5058 31.2512C11.1463 31.2512 10.7964 31.3733 10.5083 31.5992L4.53168 36.2999C4.40055 36.4126 4.23978 36.4807 4.07084 36.4951C3.90189 36.5094 3.7328 36.4693 3.58612 36.3801C3.43944 36.291 3.32214 36.1569 3.24988 35.9959C3.17762 35.835 3.15383 35.6547 3.18168 35.4791L5.70501 20.5581" fill="#B3E8E8"/>
<path d="M17.295 20.5581L19.82 35.4791C19.8483 35.6548 19.8248 35.8354 19.7527 35.9967C19.6806 36.158 19.5633 36.2923 19.4166 36.3818C19.2698 36.4712 19.1005 36.5114 18.9314 36.4971C18.7622 36.4828 18.6012 36.4146 18.47 36.3016L12.5033 31.5992C12.2153 31.3733 11.8654 31.2512 11.5058 31.2512C11.1463 31.2512 10.7964 31.3733 10.5083 31.5992L4.53168 36.2999C4.40055 36.4126 4.23978 36.4807 4.07084 36.4951C3.90189 36.5094 3.7328 36.4693 3.58612 36.3801C3.43944 36.291 3.32214 36.1569 3.24988 35.9959C3.17762 35.835 3.15383 35.6547 3.18168 35.4791L5.70501 20.5581" stroke="#675844" stroke-width="3" stroke-linecap="round" stroke-linejoin="round"/>
<path d="M11.5 22.5007C17.0228 22.5007 21.5 17.7995 21.5 12.0003C21.5 6.20116 17.0228 1.5 11.5 1.5C5.97715 1.5 1.5 6.20116 1.5 12.0003C1.5 17.7995 5.97715 22.5007 11.5 22.5007Z" fill="#FAEC7F" stroke="#675844" stroke-width="3" stroke-linecap="round" stroke-linejoin="round"/>
</svg>
