<svg width="90" height="90" viewBox="0 0 90 90" fill="none" xmlns="http://www.w3.org/2000/svg">
<path d="M10.4065 30.6171C9.78641 27.8226 9.88163 24.9167 10.6834 22.1688C11.4851 19.4209 12.9674 16.9201 14.9929 14.8981C17.0183 12.8761 19.5213 11.3984 22.2698 10.6021C25.0182 9.80579 27.9232 9.71661 30.7153 10.3428C32.2521 7.93841 34.3692 5.95969 36.8714 4.58906C39.3737 3.21843 42.1806 2.5 45.0334 2.5C47.8862 2.5 50.6931 3.21843 53.1953 4.58906C55.6976 5.95969 57.8147 7.93841 59.3515 10.3428C62.1478 9.71389 65.0578 9.80266 67.8106 10.6009C70.5635 11.3991 73.0698 12.8809 75.0965 14.9084C77.1232 16.9359 78.6044 19.4432 79.4023 22.1971C80.2002 24.9511 80.2889 27.8621 79.6602 30.6596C82.0637 32.197 84.0417 34.3149 85.4118 36.8182C86.7819 39.3214 87.5 42.1294 87.5 44.9833C87.5 47.8373 86.7819 50.6453 85.4118 53.1485C84.0417 55.6518 82.0637 57.7697 79.6602 59.3071C80.2862 62.1003 80.1971 65.0064 79.4011 67.7559C78.6051 70.5055 77.128 73.0095 75.1068 75.0357C73.0856 77.0619 70.5857 78.5448 67.8389 79.3469C65.0921 80.149 62.1874 80.2442 59.394 79.6238C57.8592 82.0375 55.7404 84.0247 53.2339 85.4015C50.7274 86.7782 47.9141 87.5 45.0546 87.5C42.1952 87.5 39.3819 86.7782 36.8754 85.4015C34.3688 84.0247 32.2501 82.0375 30.7153 79.6238C27.9232 80.2501 25.0182 80.1609 22.2698 79.3646C19.5213 78.5683 17.0183 77.0906 14.9929 75.0686C12.9674 73.0466 11.4851 70.5458 10.6834 67.7979C9.88163 65.05 9.78641 62.1441 10.4065 59.3496C7.9846 57.8162 5.98966 55.695 4.60728 53.1832C3.2249 50.6714 2.5 47.8507 2.5 44.9833C2.5 42.116 3.2249 39.2953 4.60728 36.7835C5.98966 34.2717 7.9846 32.1504 10.4065 30.6171Z" fill="#FAEC7F" stroke="#675844" stroke-width="5" stroke-linecap="round" stroke-linejoin="round"/>
<path d="M48.4184 36.564C48.1784 41.268 48.0584 45.012 48.0584 47.796C48.0584 49.236 48.0944 50.604 48.1664 51.9C48.3584 52.044 48.7304 52.116 49.2824 52.116L50.1104 52.08C50.4464 52.032 50.7584 52.008 51.0464 52.008C51.6704 52.008 52.1504 52.116 52.4864 52.332C52.8464 52.548 53.0264 52.968 53.0264 53.592C53.0264 54.192 52.8464 54.66 52.4864 54.996C52.1504 55.332 51.4424 55.5 50.3624 55.5C49.4504 55.5 48.3464 55.428 47.0504 55.284C46.7384 55.26 46.4384 55.236 46.1504 55.212C45.8624 55.188 45.5984 55.176 45.3584 55.176C44.0384 55.2 43.0544 55.248 42.4064 55.32C41.7584 55.392 41.0264 55.428 40.2104 55.428C39.4664 55.428 39.0944 54.864 39.0944 53.736C39.0944 52.656 39.7904 52.116 41.1824 52.116C41.3984 52.116 41.7464 52.14 42.2264 52.188C42.6344 52.26 43.0664 52.296 43.5224 52.296C43.7864 52.296 44.0024 52.284 44.1704 52.26C44.1944 50.652 44.2784 48.312 44.4224 45.24C44.5664 41.64 44.6384 38.976 44.6384 37.248C44.5184 37.272 44.0984 37.44 43.3784 37.752C42.2744 38.304 41.4584 38.58 40.9304 38.58C40.6424 38.58 40.3784 38.436 40.1384 38.148C39.8984 37.836 39.7784 37.476 39.7784 37.068C39.7784 36.66 40.0304 36.264 40.5344 35.88C41.0384 35.496 41.8544 34.992 42.9824 34.368C43.6064 34.056 44.2064 33.708 44.7824 33.324C44.9264 33.228 45.1304 33.132 45.3944 33.036C45.6824 32.94 45.8984 32.892 46.0424 32.892C46.6664 32.892 47.2304 33.024 47.7344 33.288C48.2624 33.528 48.5264 33.852 48.5264 34.26L48.4184 36.564Z" fill="#739797"/>
</svg>
