<svg width="90" height="90" viewBox="0 0 90 90" fill="none" xmlns="http://www.w3.org/2000/svg">
<path d="M10.4065 30.6171C9.78641 27.8226 9.88163 24.9167 10.6834 22.1688C11.4851 19.4209 12.9674 16.9201 14.9929 14.8981C17.0183 12.8761 19.5213 11.3984 22.2698 10.6021C25.0182 9.80579 27.9232 9.71661 30.7153 10.3428C32.2521 7.93841 34.3692 5.95969 36.8714 4.58906C39.3737 3.21843 42.1806 2.5 45.0334 2.5C47.8862 2.5 50.6931 3.21843 53.1953 4.58906C55.6976 5.95969 57.8147 7.93841 59.3515 10.3428C62.1478 9.71389 65.0578 9.80266 67.8106 10.6009C70.5635 11.3991 73.0698 12.8809 75.0965 14.9084C77.1232 16.9359 78.6044 19.4432 79.4023 22.1971C80.2002 24.9511 80.2889 27.8621 79.6602 30.6596C82.0637 32.197 84.0417 34.3149 85.4118 36.8182C86.7819 39.3214 87.5 42.1294 87.5 44.9833C87.5 47.8373 86.7819 50.6453 85.4118 53.1485C84.0417 55.6518 82.0637 57.7697 79.6602 59.3071C80.2862 62.1003 80.1971 65.0064 79.4011 67.7559C78.6051 70.5055 77.128 73.0095 75.1068 75.0357C73.0856 77.0619 70.5857 78.5448 67.8389 79.3469C65.0921 80.149 62.1874 80.2442 59.394 79.6238C57.8592 82.0375 55.7404 84.0247 53.2339 85.4015C50.7274 86.7782 47.9141 87.5 45.0546 87.5C42.1952 87.5 39.3819 86.7782 36.8754 85.4015C34.3688 84.0247 32.2501 82.0375 30.7153 79.6238C27.9232 80.2501 25.0182 80.1609 22.2698 79.3646C19.5213 78.5683 17.0183 77.0906 14.9929 75.0686C12.9674 73.0466 11.4851 70.5458 10.6834 67.7979C9.88163 65.05 9.78641 62.1441 10.4065 59.3496C7.9846 57.8162 5.98966 55.695 4.60728 53.1832C3.2249 50.6714 2.5 47.8507 2.5 44.9833C2.5 42.116 3.2249 39.2953 4.60728 36.7835C5.98966 34.2717 7.9846 32.1504 10.4065 30.6171Z" fill="#FFD096" stroke="#675844" stroke-width="5" stroke-linecap="round" stroke-linejoin="round"/>
<path d="M47.0314 41.1C48.9994 41.532 50.6314 42.384 51.9274 43.656C53.2234 44.928 53.8714 46.404 53.8714 48.084C53.8714 49.092 53.6314 50.076 53.1514 51.036C52.3834 52.572 51.2314 53.724 49.6954 54.492C48.1834 55.26 46.4314 55.644 44.4394 55.644C43.1914 55.644 42.0754 55.416 41.0914 54.96C40.1074 54.48 39.1354 53.844 38.1754 53.052C37.8154 52.716 37.4914 52.236 37.2034 51.612C36.9394 50.988 36.8074 50.472 36.8074 50.064C36.8074 49.536 36.9514 49.116 37.2394 48.804C37.5514 48.468 37.9594 48.3 38.4634 48.3C38.9674 48.3 39.3634 48.42 39.6514 48.66C39.9394 48.9 40.2874 49.284 40.6954 49.812C41.0794 50.316 41.4274 50.724 41.7394 51.036C42.0514 51.324 42.4714 51.576 42.9994 51.792C43.5274 52.008 44.1874 52.116 44.9794 52.116C46.5874 52.116 47.8474 51.72 48.7594 50.928C49.6714 50.136 50.1274 49.02 50.1274 47.58C50.1274 47.028 49.8274 46.476 49.2274 45.924C48.6274 45.348 48.0634 44.94 47.5354 44.7C47.2234 44.532 46.6474 44.364 45.8074 44.196C44.6794 43.908 43.8274 43.632 43.2514 43.368C42.6994 43.08 42.4234 42.636 42.4234 42.036C42.4234 41.628 42.6034 41.232 42.9634 40.848C43.3234 40.44 43.8634 39.936 44.5834 39.336C45.3034 38.736 45.8434 38.244 46.2034 37.86C46.5634 37.452 46.7434 37.044 46.7434 36.636C46.2874 36.516 45.6034 36.456 44.6914 36.456C44.2834 36.456 43.6714 36.48 42.8554 36.528C42.1354 36.576 41.5834 36.6 41.1994 36.6C40.3354 36.6 39.5914 36.456 38.9674 36.168C38.3674 35.88 38.0674 35.508 38.0674 35.052C38.0674 34.548 38.1154 34.152 38.2114 33.864C38.3074 33.552 38.4874 33.36 38.7514 33.288C38.9194 33.216 39.2194 33.18 39.6514 33.18C40.8274 33.18 41.8474 33.216 42.7114 33.288C43.6714 33.336 44.4034 33.36 44.9074 33.36L47.8954 33.324C50.3434 33.324 51.5674 33.912 51.5674 35.088C51.5674 35.976 51.1114 36.984 50.1994 38.112C49.3114 39.216 48.2554 40.212 47.0314 41.1Z" fill="#739797"/>
</svg>
