<svg width="51" height="85" viewBox="0 0 51 85" fill="none" xmlns="http://www.w3.org/2000/svg">
<path d="M38.6031 46.0615L44.3745 80.1666C44.4391 80.5682 44.3855 80.981 44.2207 81.3497C44.0559 81.7184 43.7878 82.0255 43.4523 82.2299C43.1168 82.4343 42.7299 82.5263 42.3433 82.4935C41.9566 82.4608 41.5887 82.3049 41.2888 82.0467L27.6507 71.2983C26.9923 70.7819 26.1925 70.5028 25.3707 70.5028C24.5489 70.5028 23.7491 70.7819 23.0907 71.2983L9.42973 82.0427C9.12999 82.3004 8.76254 82.4561 8.37638 82.4889C7.99022 82.5216 7.60372 82.43 7.26844 82.2262C6.93317 82.0223 6.66506 81.716 6.49989 81.348C6.33472 80.98 6.28035 80.5679 6.34401 80.1666L12.1116 46.0615" fill="#B3E8E8"/>
<path d="M38.6031 46.0615L44.3745 80.1666C44.4391 80.5682 44.3855 80.981 44.2207 81.3497C44.0559 81.7184 43.7878 82.0255 43.4523 82.2299C43.1168 82.4343 42.7299 82.5263 42.3433 82.4935C41.9566 82.4608 41.5887 82.3049 41.2888 82.0467L27.6507 71.2983C26.9923 70.7819 26.1925 70.5028 25.3707 70.5028C24.5489 70.5028 23.7491 70.7819 23.0907 71.2983L9.42973 82.0427C9.12999 82.3004 8.76254 82.4561 8.37638 82.4889C7.99022 82.5216 7.60372 82.43 7.26844 82.2262C6.93317 82.0223 6.66506 81.716 6.49989 81.348C6.33472 80.98 6.28035 80.5679 6.34401 80.1666L12.1116 46.0615" stroke="#675844" stroke-width="5" stroke-linecap="round" stroke-linejoin="round"/>
<path d="M25.3571 50.5016C37.9808 50.5016 48.2143 39.756 48.2143 26.5008C48.2143 13.2455 37.9808 2.5 25.3571 2.5C12.7335 2.5 2.5 13.2455 2.5 26.5008C2.5 39.756 12.7335 50.5016 25.3571 50.5016Z" fill="#FAEC7F" stroke="#675844" stroke-width="5" stroke-linecap="round" stroke-linejoin="round"/>
</svg>
