<svg width="90" height="90" viewBox="0 0 90 90" fill="none" xmlns="http://www.w3.org/2000/svg">
<path d="M10.4065 30.6171C9.78641 27.8226 9.88163 24.9167 10.6834 22.1688C11.4851 19.4209 12.9674 16.9201 14.9929 14.8981C17.0183 12.8761 19.5213 11.3984 22.2698 10.6021C25.0182 9.80579 27.9232 9.71661 30.7153 10.3428C32.2521 7.93841 34.3692 5.95969 36.8714 4.58906C39.3737 3.21843 42.1806 2.5 45.0334 2.5C47.8862 2.5 50.6931 3.21843 53.1953 4.58906C55.6976 5.95969 57.8147 7.93841 59.3515 10.3428C62.1478 9.71389 65.0578 9.80266 67.8106 10.6009C70.5635 11.3991 73.0698 12.8809 75.0965 14.9084C77.1232 16.9359 78.6044 19.4432 79.4023 22.1971C80.2002 24.9511 80.2889 27.8621 79.6602 30.6596C82.0637 32.197 84.0417 34.3149 85.4118 36.8182C86.7819 39.3214 87.5 42.1294 87.5 44.9833C87.5 47.8373 86.7819 50.6453 85.4118 53.1485C84.0417 55.6518 82.0637 57.7697 79.6602 59.3071C80.2862 62.1003 80.1971 65.0064 79.4011 67.7559C78.6051 70.5055 77.128 73.0095 75.1068 75.0357C73.0856 77.0619 70.5857 78.5448 67.8389 79.3469C65.0921 80.149 62.1874 80.2442 59.394 79.6238C57.8592 82.0375 55.7404 84.0247 53.2339 85.4015C50.7274 86.7782 47.9141 87.5 45.0546 87.5C42.1952 87.5 39.3819 86.7782 36.8754 85.4015C34.3688 84.0247 32.2501 82.0375 30.7153 79.6238C27.9232 80.2501 25.0182 80.1609 22.2698 79.3646C19.5213 78.5683 17.0183 77.0906 14.9929 75.0686C12.9674 73.0466 11.4851 70.5458 10.6834 67.7979C9.88163 65.05 9.78641 62.1441 10.4065 59.3496C7.9846 57.8162 5.98966 55.695 4.60728 53.1832C3.2249 50.6714 2.5 47.8507 2.5 44.9833C2.5 42.116 3.2249 39.2953 4.60728 36.7835C5.98966 34.2717 7.9846 32.1504 10.4065 30.6171Z" fill="#E7E5E5" stroke="#675844" stroke-width="5" stroke-linecap="round" stroke-linejoin="round"/>
<path d="M42.9014 51.756C43.7174 51.804 44.2574 51.828 44.5214 51.828C45.3374 51.828 46.0574 51.816 46.6814 51.792C47.3294 51.768 47.8814 51.744 48.3374 51.72C49.5134 51.648 50.5694 51.612 51.5054 51.612C52.4174 51.612 53.0894 51.852 53.5214 52.332C53.9534 52.812 54.1694 53.448 54.1694 54.24C54.1694 54.624 53.9174 54.936 53.4134 55.176C52.9094 55.392 52.3934 55.5 51.8654 55.5C51.4094 55.5 50.4614 55.452 49.0214 55.356C47.2934 55.212 45.9374 55.14 44.9534 55.14C44.4254 55.14 43.8014 55.176 43.0814 55.248C42.7934 55.272 42.4454 55.296 42.0374 55.32C41.6294 55.344 41.1734 55.356 40.6694 55.356C39.7094 55.356 38.9774 55.224 38.4734 54.96C37.9694 54.696 37.7174 54.216 37.7174 53.52C37.7174 52.92 37.9574 52.308 38.4374 51.684C38.9174 51.06 39.5894 50.316 40.4534 49.452L41.3174 48.588C41.7014 48.18 42.4094 47.484 43.4414 46.5C45.1454 44.964 46.4654 43.608 47.4014 42.432C48.3614 41.256 48.8414 40.092 48.8414 38.94C48.8414 38.196 48.4814 37.596 47.7614 37.14C47.0654 36.66 46.2614 36.42 45.3494 36.42C43.9574 36.42 42.9494 36.732 42.3254 37.356C41.7254 37.956 41.4254 38.832 41.4254 39.984C41.4254 40.272 41.2574 40.536 40.9214 40.776C40.6094 40.992 40.2134 41.1 39.7334 41.1C39.0614 41.1 38.5934 40.86 38.3294 40.38C38.0654 39.9 37.9334 39.312 37.9334 38.616C37.9334 37.512 38.2694 36.54 38.9414 35.7C39.6134 34.836 40.5254 34.164 41.6774 33.684C42.8534 33.204 44.1494 32.964 45.5654 32.964C46.5734 32.964 47.6174 33.216 48.6974 33.72C49.8014 34.2 50.7134 34.86 51.4334 35.7C52.1774 36.516 52.5494 37.416 52.5494 38.4C52.5494 39.888 52.1774 41.304 51.4334 42.648C50.6894 43.992 49.8134 45.192 48.8054 46.248C47.8214 47.28 46.5374 48.504 44.9534 49.92C44.1854 50.568 43.5014 51.18 42.9014 51.756Z" fill="#739797"/>
</svg>
