<svg width="496" height="87" viewBox="0 0 496 87" fill="none" xmlns="http://www.w3.org/2000/svg">
<mask id="mask0_141_603" style="mask-type:alpha" maskUnits="userSpaceOnUse" x="0" y="16" width="111" height="72">
<path d="M110.947 87.0001H0V16.5714H110.947V87.0001ZM0.395508 86.8273L40.3125 51.6007L0.28125 16.5861L0.395508 86.8273Z" fill="black"/>
</mask>
<g mask="url(#mask0_141_603)">
<rect x="1.08765" y="16.5714" width="110.947" height="70.4286" fill="#FF84A4"/>
</g>
<mask id="mask1_141_603" style="mask-type:alpha" maskUnits="userSpaceOnUse" x="385" y="16" width="111" height="72">
<path d="M385.053 87.0001H496V16.5714H385.053V87.0001ZM495.604 86.8273L455.688 51.6007L495.719 16.5861L495.604 86.8273Z" fill="black"/>
</mask>
<g mask="url(#mask1_141_603)">
<rect width="110.947" height="70.4286" transform="matrix(-1 0 0 1 494.912 16.5714)" fill="#FF84A4"/>
</g>
<rect x="55.4739" width="385.052" height="70.4286" fill="#FFC2CF"/>
<path d="M224.498 25.3214C224.072 23.4037 224.137 21.4095 224.688 19.5237C225.238 17.638 226.255 15.9217 227.645 14.5341C229.035 13.1465 230.753 12.1325 232.639 11.586C234.525 11.0395 236.519 10.9783 238.435 11.4081C239.489 9.75803 240.942 8.40011 242.659 7.45951C244.377 6.5189 246.303 6.02588 248.261 6.02588C250.218 6.02588 252.145 6.5189 253.862 7.45951C255.579 8.40011 257.032 9.75803 258.086 11.4081C260.006 10.9765 262.002 11.0374 263.892 11.5852C265.781 12.133 267.501 13.1498 268.892 14.5412C270.282 15.9326 271.299 17.6533 271.846 19.5432C272.394 21.4331 272.455 23.4308 272.024 25.3506C273.673 26.4056 275.03 27.8591 275.971 29.577C276.911 31.2948 277.404 33.2218 277.404 35.1804C277.404 37.1389 276.911 39.0659 275.971 40.7838C275.03 42.5016 273.673 43.9551 272.024 45.0101C272.453 46.927 272.392 48.9213 271.846 50.8082C271.299 52.6951 270.286 54.4135 268.899 55.804C267.512 57.1945 265.796 58.2122 263.911 58.7626C262.026 59.313 260.033 59.3784 258.116 58.9526C257.062 60.609 255.608 61.9727 253.888 62.9175C252.168 63.8624 250.238 64.3577 248.275 64.3577C246.313 64.3577 244.382 63.8624 242.662 62.9175C240.942 61.9727 239.488 60.609 238.435 58.9526C236.519 59.3824 234.525 59.3212 232.639 58.7747C230.753 58.2282 229.035 57.2142 227.645 55.8266C226.255 54.439 225.238 52.7227 224.688 50.837C224.137 48.9512 224.072 46.957 224.498 45.0393C222.836 43.987 221.467 42.5313 220.518 40.8076C219.569 39.0838 219.072 37.1481 219.072 35.1804C219.072 33.2126 219.569 31.2769 220.518 29.5531C221.467 27.8294 222.836 26.3737 224.498 25.3214Z" fill="#FAEC7F" stroke="#675844" stroke-width="3" stroke-linecap="round" stroke-linejoin="round"/>
<path d="M328.761 25.5135C328.33 23.5731 328.396 21.5555 328.953 19.6475C329.51 17.7396 330.539 16.0032 331.945 14.5992C333.352 13.1953 335.089 12.1693 336.998 11.6164C338.906 11.0635 340.923 11.0016 342.862 11.4364C343.929 9.76691 345.399 8.39302 347.136 7.44135C348.874 6.48967 350.823 5.99084 352.803 5.99084C354.784 5.99084 356.733 6.48967 358.47 7.44135C360.208 8.39302 361.678 9.76691 362.745 11.4364C364.686 10.9997 366.707 11.0613 368.618 11.6156C370.53 12.1698 372.27 13.1986 373.677 14.6064C375.084 16.0141 376.113 17.7551 376.667 19.6672C377.221 21.5793 377.282 23.6006 376.846 25.543C378.515 26.6104 379.888 28.081 380.839 29.8191C381.791 31.5572 382.289 33.5068 382.289 35.4884C382.289 37.47 381.791 39.4197 380.839 41.1578C379.888 42.8958 378.515 44.3664 376.846 45.4339C377.281 47.3733 377.219 49.3911 376.666 51.3002C376.113 53.2093 375.088 54.9479 373.684 56.3548C372.281 57.7616 370.545 58.7913 368.638 59.3482C366.731 59.9051 364.714 59.9712 362.774 59.5404C361.709 61.2163 360.238 62.5961 358.497 63.552C356.757 64.508 354.804 65.0091 352.818 65.0091C350.833 65.0091 348.879 64.508 347.139 63.552C345.399 62.5961 343.927 61.2163 342.862 59.5404C340.923 59.9753 338.906 59.9133 336.998 59.3604C335.089 58.8075 333.352 57.7816 331.945 56.3776C330.539 54.9737 329.51 53.2372 328.953 51.3293C328.396 49.4213 328.33 47.4037 328.761 45.4634C327.079 44.3987 325.694 42.9259 324.734 41.1819C323.774 39.4378 323.271 37.4793 323.271 35.4884C323.271 33.4975 323.774 31.539 324.734 29.795C325.694 28.051 327.079 26.5781 328.761 25.5135Z" fill="#FFD096" stroke="#675844" stroke-width="3" stroke-linecap="round" stroke-linejoin="round"/>
<path d="M119.201 25.5135C118.77 23.5731 118.836 21.5555 119.393 19.6475C119.95 17.7396 120.979 16.0032 122.385 14.5992C123.791 13.1953 125.529 12.1693 127.438 11.6164C129.346 11.0635 131.363 11.0016 133.302 11.4364C134.369 9.76691 135.839 8.39302 137.576 7.44135C139.314 6.48967 141.262 5.99084 143.243 5.99084C145.224 5.99084 147.173 6.48967 148.91 7.44135C150.648 8.39302 152.118 9.76691 153.185 11.4364C155.126 10.9997 157.147 11.0613 159.058 11.6156C160.97 12.1698 162.71 13.1986 164.117 14.6064C165.524 16.0141 166.553 17.7551 167.107 19.6672C167.661 21.5793 167.722 23.6006 167.286 25.543C168.955 26.6104 170.328 28.081 171.279 29.8191C172.231 31.5572 172.729 33.5068 172.729 35.4884C172.729 37.47 172.231 39.4197 171.279 41.1578C170.328 42.8958 168.955 44.3664 167.286 45.4339C167.72 47.3733 167.659 49.3911 167.106 51.3002C166.553 53.2093 165.528 54.9479 164.124 56.3548C162.721 57.7616 160.985 58.7913 159.078 59.3482C157.171 59.9051 155.154 59.9712 153.214 59.5404C152.149 61.2163 150.678 62.5961 148.937 63.552C147.197 64.508 145.243 65.0091 143.258 65.0091C141.273 65.0091 139.319 64.508 137.579 63.552C135.839 62.5961 134.367 61.2163 133.302 59.5404C131.363 59.9753 129.346 59.9133 127.438 59.3604C125.529 58.8075 123.791 57.7816 122.385 56.3776C120.979 54.9737 119.95 53.2372 119.393 51.3293C118.836 49.4213 118.77 47.4037 119.201 45.4634C117.519 44.3987 116.134 42.9259 115.174 41.1819C114.214 39.4378 113.711 37.4793 113.711 35.4884C113.711 33.4975 114.214 31.539 115.174 29.795C116.134 28.051 117.519 26.5781 119.201 25.5135Z" fill="#E7E5E5" stroke="#675844" stroke-width="3" stroke-linecap="round" stroke-linejoin="round"/>
</svg>
