<svg width="190" height="194" viewBox="0 0 190 194" fill="none" xmlns="http://www.w3.org/2000/svg">
<g filter="url(#filter0_d_63_282)">
<circle cx="97" cy="102" r="82" fill="#B3E8E8"/>
<circle cx="97" cy="102" r="80" stroke="#567171" stroke-width="4"/>
</g>
<g clip-path="url(#clip0_63_282)">
<path d="M66.6335 87.9525C70.9088 83.4712 70.7516 76.2354 66.2824 71.7909C61.8132 67.3465 54.7245 67.3764 50.4493 71.8577C46.174 76.3391 46.3312 83.5749 50.8004 88.0193C55.2695 92.4637 62.3583 92.4338 66.6335 87.9525Z" stroke="#567171" stroke-width="4" stroke-linecap="round" stroke-linejoin="round"/>
<path d="M104.377 71.7767C108.652 67.2954 108.495 60.0596 104.026 55.6152C99.5569 51.1707 92.4682 51.2006 88.1929 55.682C83.9177 60.1633 84.0749 67.3991 88.544 71.8435C93.0132 76.288 100.102 76.2581 104.377 71.7767Z" stroke="#567171" stroke-width="4" stroke-linecap="round" stroke-linejoin="round"/>
<path d="M142.121 87.9525C146.396 83.4712 146.239 76.2354 141.769 71.7909C137.3 67.3465 130.212 67.3764 125.936 71.8577C121.661 76.3391 121.818 83.5749 126.287 88.0193C130.757 92.4637 137.845 92.4338 142.121 87.9525Z" stroke="#567171" stroke-width="4" stroke-linecap="round" stroke-linejoin="round"/>
<path d="M75.2952 101.093C77.8366 98.4293 80.8764 96.3118 84.2411 94.8617C87.6057 93.4116 91.2293 92.6573 94.9049 92.6418C98.5805 92.6263 102.236 93.3499 105.663 94.7713C109.09 96.1928 112.221 98.2842 114.878 100.926L129.039 115.009C132.423 118.376 134.534 122.846 134.992 127.611C135.449 132.375 134.222 137.118 131.533 140.981C128.843 144.844 124.87 147.571 120.332 148.669C115.793 149.767 110.991 149.162 106.793 146.964C99.5717 143.156 92.4401 143.179 85.3982 147.034C81.2992 149.266 76.5264 149.911 71.9433 148.855C67.3602 147.798 63.2696 145.108 60.4118 141.273C57.554 137.437 56.1177 132.709 56.3629 127.944C56.6081 123.178 58.5185 118.691 61.7485 115.293L75.2952 101.093Z" stroke="#567171" stroke-width="4" stroke-linecap="round" stroke-linejoin="round"/>
</g>
<defs>
<filter id="filter0_d_63_282" x="11" y="20" width="172" height="172" filterUnits="userSpaceOnUse" color-interpolation-filters="sRGB">
<feFlood flood-opacity="0" result="BackgroundImageFix"/>
<feColorMatrix in="SourceAlpha" type="matrix" values="0 0 0 0 0 0 0 0 0 0 0 0 0 0 0 0 0 0 127 0" result="hardAlpha"/>
<feOffset dy="4"/>
<feGaussianBlur stdDeviation="2"/>
<feComposite in2="hardAlpha" operator="out"/>
<feColorMatrix type="matrix" values="0 0 0 0 0 0 0 0 0 0 0 0 0 0 0 0 0 0 0.25 0"/>
<feBlend mode="normal" in2="BackgroundImageFix" result="effect1_dropShadow_63_282"/>
<feBlend mode="normal" in="SourceGraphic" in2="effect1_dropShadow_63_282" result="shape"/>
</filter>
<clipPath id="clip0_63_282">
<rect width="134.573" height="136.949" rx="6" transform="matrix(0.690273 -0.723549 0.709065 0.705143 0 97.3701)" fill="white"/>
</clipPath>
</defs>
</svg>
