<svg width="163" height="167" viewBox="0 0 163 167" fill="none" xmlns="http://www.w3.org/2000/svg">
<path d="M83.1528 19.6448C120.594 19.6449 150.947 49.9974 150.947 87.4388C150.947 124.88 120.594 155.233 83.1528 155.233C45.7115 155.233 15.359 124.88 15.3589 87.4388C15.3589 49.9973 45.7114 19.6448 83.1528 19.6448Z" fill="#E0CDB2" stroke="#675844" stroke-width="5"/>
<g clip-path="url(#clip0_69_371)">
<path d="M57.1211 75.3965C60.786 71.5549 60.6512 65.3521 56.8201 61.5422C52.9889 57.7322 46.9122 57.7579 43.2472 61.5994C39.5823 65.441 39.7171 71.6438 43.5482 75.4538C47.3794 79.2637 53.4561 79.2381 57.1211 75.3965Z" stroke="#675844" stroke-width="4" stroke-linecap="round" stroke-linejoin="round"/>
<path d="M89.4765 61.5299C93.1414 57.6884 93.0067 51.4856 89.1755 47.6756C85.3444 43.8656 79.2676 43.8913 75.6027 47.7329C71.9378 51.5744 72.0726 57.7772 75.9037 61.5872C79.7349 65.3972 85.8116 65.3715 89.4765 61.5299Z" stroke="#675844" stroke-width="4" stroke-linecap="round" stroke-linejoin="round"/>
<path d="M121.832 75.3965C125.496 71.5549 125.362 65.3521 121.531 61.5422C117.699 57.7322 111.623 57.7579 107.958 61.5994C104.293 65.441 104.428 71.6438 108.259 75.4538C112.09 79.2637 118.167 79.2381 121.832 75.3965Z" stroke="#675844" stroke-width="4" stroke-linecap="round" stroke-linejoin="round"/>
<path d="M64.5462 86.6612C66.7248 84.3776 69.3307 82.5624 72.215 81.3194C75.0993 80.0763 78.2055 79.4296 81.3564 79.4163C84.5073 79.403 87.6411 80.0234 90.5789 81.2419C93.5167 82.4604 96.2009 84.2533 98.4783 86.5181L110.618 98.5905C113.518 101.477 115.328 105.309 115.72 109.393C116.113 113.477 115.061 117.543 112.755 120.855C110.45 124.166 107.044 126.504 103.153 127.445C99.2628 128.386 95.1457 127.868 91.5476 125.984C85.357 122.719 79.2435 122.739 73.207 126.044C69.6931 127.957 65.6016 128.51 61.6728 127.604C57.744 126.698 54.2374 124.393 51.7876 121.105C49.3377 117.817 48.1065 113.763 48.3167 109.678C48.5269 105.593 50.1645 101.747 52.9334 98.8339L64.5462 86.6612Z" stroke="#675844" stroke-width="4" stroke-linecap="round" stroke-linejoin="round"/>
</g>
<defs>
<clipPath id="clip0_69_371">
<rect width="115.361" height="117.398" rx="6" transform="matrix(0.690273 -0.723549 0.709065 0.705143 0 83.4697)" fill="white"/>
</clipPath>
</defs>
</svg>
