<svg width="38" height="38" viewBox="0 0 38 38" fill="none" xmlns="http://www.w3.org/2000/svg">
<path d="M3.23546 26.598C3.49278 27.2471 3.55006 27.9583 3.39996 28.6402L1.53621 34.3977C1.47616 34.6897 1.49168 34.9922 1.58132 35.2765C1.67095 35.5608 1.83172 35.8175 2.04838 36.0222C2.26503 36.2269 2.5304 36.3729 2.81931 36.4464C3.10822 36.5198 3.41109 36.5182 3.69921 36.4417L9.67195 34.6952C10.3155 34.5676 10.9819 34.6234 11.5952 34.8562C15.3321 36.6014 19.5653 36.9706 23.5479 35.8987C27.5306 34.8269 31.0066 32.3829 33.3629 28.9979C35.7191 25.6129 36.8041 21.5044 36.4264 17.3974C36.0487 13.2904 34.2326 9.44878 31.2985 6.55031C28.3644 3.65183 24.5009 1.88278 20.3896 1.55528C16.2783 1.22778 12.1834 2.36288 8.82747 4.76031C5.47152 7.15773 3.07014 10.6634 2.04702 14.6588C1.02391 18.6542 1.44481 22.8826 3.23546 26.598Z" stroke="#675844" stroke-width="3" stroke-linecap="round" stroke-linejoin="round"/>
<path d="M13.9062 13.7495C14.3177 12.58 15.1298 11.5937 16.1987 10.9655C17.2676 10.3373 18.5243 10.1077 19.7463 10.3173C20.9683 10.5269 22.0767 11.1622 22.8751 12.1107C23.6736 13.0592 24.1106 14.2597 24.1087 15.4995C24.1087 18.9995 18.8587 20.7495 18.8587 20.7495" stroke="#675844" stroke-width="3" stroke-linecap="round" stroke-linejoin="round"/>
<path d="M18.999 27.7495H19.0165" stroke="#675844" stroke-width="3" stroke-linecap="round" stroke-linejoin="round"/>
</svg>
