<svg width="38" height="38" viewBox="0 0 38 38" fill="none" xmlns="http://www.w3.org/2000/svg">
<path d="M15.9692 34.75C16.2764 35.282 16.7183 35.7238 17.2503 36.031C17.7824 36.3381 18.3859 36.4998 19.0002 36.4998C19.6146 36.4998 20.2181 36.3381 20.7502 36.031C21.2822 35.7238 21.724 35.282 22.0312 34.75" stroke="#675844" stroke-width="3" stroke-linecap="round" stroke-linejoin="round"/>
<path d="M27.7497 27.7501H4.99965C4.6605 27.7502 4.32863 27.6517 4.04439 27.4667C3.76014 27.2817 3.53578 27.0181 3.39859 26.708C3.2614 26.3978 3.21729 26.0545 3.27163 25.7197C3.32596 25.3849 3.4764 25.0732 3.70465 24.8223C6.03215 22.4231 8.49965 19.8734 8.49965 12.0002C8.4994 10.9674 8.65153 9.9402 8.95115 8.95178" stroke="#675844" stroke-width="3" stroke-linecap="round" stroke-linejoin="round"/>
<path d="M1.5 1.50024L36.5 36.4998" stroke="#675844" stroke-width="3" stroke-linecap="round" stroke-linejoin="round"/>
<path d="M13.1689 3.26789C14.75 2.2121 16.5881 1.6054 18.4871 1.51254C20.386 1.41967 22.2745 1.84413 23.9511 2.74062C25.6277 3.6371 27.0294 4.97197 28.0066 6.60277C28.9839 8.23356 29.5 10.0991 29.4999 12.0003C29.4999 16.7025 30.8474 20.1429 32.4872 22.5877" stroke="#675844" stroke-width="3" stroke-linecap="round" stroke-linejoin="round"/>
</svg>
