<svg width="38" height="38" viewBox="0 0 38 38" fill="none" xmlns="http://www.w3.org/2000/svg">
<path d="M15.9692 34.7503C16.2764 35.2823 16.7183 35.7241 17.2503 36.0313C17.7824 36.3384 18.3859 36.5001 19.0002 36.5001C19.6146 36.5001 20.2181 36.3384 20.7502 36.0313C21.2822 35.7241 21.724 35.2823 22.0312 34.7503" stroke="#675844" stroke-width="3" stroke-linecap="round" stroke-linejoin="round"/>
<path d="M36.5 12.0002C36.5 7.97515 35.1 4.47514 33 1.50012" stroke="#675844" stroke-width="3" stroke-linecap="round" stroke-linejoin="round"/>
<path d="M3.70869 24.8207C3.48007 25.0713 3.32921 25.3829 3.27443 25.7176C3.21966 26.0524 3.26335 26.3958 3.40017 26.7062C3.537 27.0165 3.76107 27.2805 4.04513 27.4658C4.32919 27.6512 4.661 27.75 5.00019 27.7502H33.0002C33.3393 27.7504 33.6712 27.6519 33.9555 27.4669C34.2397 27.2819 34.4641 27.0183 34.6012 26.7081C34.7384 26.398 34.7825 26.0546 34.7282 25.7199C34.6739 25.3851 34.5234 25.0733 34.2952 24.8225C31.9677 22.4232 29.5002 19.8735 29.5002 12.0002C29.5002 9.21538 28.3939 6.54465 26.4248 4.57551C24.4557 2.60637 21.785 1.50012 19.0002 1.50012C16.2154 1.50012 13.5447 2.60637 11.5756 4.57551C9.60643 6.54465 8.50019 9.21538 8.50019 12.0002C8.50019 19.8735 6.03094 22.4232 3.70869 24.8207Z" stroke="#675844" stroke-width="3" stroke-linecap="round" stroke-linejoin="round"/>
<path d="M5 1.50012C2.9 4.47514 1.5 7.97515 1.5 12.0002" stroke="#675844" stroke-width="3" stroke-linecap="round" stroke-linejoin="round"/>
</svg>
