<svg width="38" height="38" viewBox="0 0 38 38" fill="none" xmlns="http://www.w3.org/2000/svg">
<path d="M2.52354 28.4898C1.86837 29.1448 1.5002 30.0332 1.5 30.9596V34.7533C1.5 35.2166 1.68402 35.6609 2.01158 35.9884C2.33915 36.316 2.78342 36.5 3.24666 36.5H8.48664C8.94988 36.5 9.39415 36.316 9.72171 35.9884C10.0493 35.6609 10.2333 35.2166 10.2333 34.7533V33.0067C10.2333 32.5434 10.4173 32.0992 10.7449 31.7716C11.0724 31.444 11.5167 31.26 11.98 31.26H13.7266C14.1899 31.26 14.6341 31.076 14.9617 30.7484C15.2893 30.4209 15.4733 29.9766 15.4733 29.5134V27.7667C15.4733 27.3035 15.6573 26.8592 15.9849 26.5316C16.3124 26.2041 16.7567 26.02 17.2199 26.02H17.5204C18.4468 26.0198 19.3352 25.6517 19.9901 24.9965L21.4119 23.5747C23.8395 24.4204 26.4822 24.4171 28.9077 23.5655C31.3332 22.714 33.3979 21.0645 34.764 18.8869C36.1302 16.7093 36.7169 14.1326 36.4282 11.5782C36.1394 9.02382 34.9924 6.64304 33.1747 4.82532C31.357 3.0076 28.9762 1.86056 26.4218 1.57185C23.8674 1.28314 21.2907 1.86984 19.1131 3.23598C16.9355 4.60213 15.286 6.66683 14.4345 9.09232C13.5829 11.5178 13.5796 14.1605 14.4253 16.5881L2.52354 28.4898Z" stroke="#675844" stroke-width="3" stroke-linecap="round" stroke-linejoin="round"/>
<path d="M26.5 12.5C27.0523 12.5 27.5 12.0523 27.5 11.5C27.5 10.9477 27.0523 10.5 26.5 10.5C25.9477 10.5 25.5 10.9477 25.5 11.5C25.5 12.0523 25.9477 12.5 26.5 12.5Z" fill="black" stroke="#675844" stroke-width="3" stroke-linecap="round" stroke-linejoin="round"/>
</svg>
