<svg width="38" height="38" viewBox="0 0 38 38" fill="none" xmlns="http://www.w3.org/2000/svg">
<path d="M1.5 34.6614C1.49975 32.2778 2.04865 29.9297 3.09963 27.8185C4.1506 25.7073 5.6723 23.8959 7.53422 22.5396C9.39615 21.1834 11.5428 20.3229 13.79 20.0317C16.0372 19.7406 18.3179 20.0276 20.4366 20.8681" stroke="#675844" stroke-width="3" stroke-linecap="round" stroke-linejoin="round"/>
<path d="M35.4111 26.6032C36.1082 25.8693 36.4999 24.8739 36.4999 23.836C36.4999 22.7982 36.1082 21.8028 35.4111 21.0689C34.714 20.335 33.7685 19.9227 32.7826 19.9227C31.7968 19.9227 30.8513 20.335 30.1541 21.0689L23.1367 28.4602C22.7206 28.898 22.4161 29.4391 22.2512 30.0335L20.7865 35.3209C20.7425 35.4794 20.7399 35.6475 20.7788 35.8075C20.8178 35.9674 20.8968 36.1134 21.0077 36.2302C21.1187 36.347 21.2574 36.4302 21.4093 36.4712C21.5613 36.5122 21.7209 36.5094 21.8715 36.4631L26.8939 34.9211C27.4586 34.7476 27.9726 34.4269 28.3884 33.9889L35.4111 26.6032Z" stroke="#675844" stroke-width="3" stroke-linecap="round" stroke-linejoin="round"/>
<path d="M15.4999 19.923C20.3324 19.923 24.2499 15.7988 24.2499 10.7115C24.2499 5.62412 20.3324 1.5 15.4999 1.5C10.6675 1.5 6.75 5.62412 6.75 10.7115C6.75 15.7988 10.6675 19.923 15.4999 19.923Z" stroke="#675844" stroke-width="3" stroke-linecap="round" stroke-linejoin="round"/>
</svg>
