<svg width="38" height="38" viewBox="0 0 38 38" fill="none" xmlns="http://www.w3.org/2000/svg">
<path d="M20.75 34.7513H34.7501" stroke="#675844" stroke-width="3" stroke-linecap="round" stroke-linejoin="round"/>
<path d="M35.0547 9.92186C35.9799 8.99683 36.4998 7.74213 36.5 6.43377C36.5002 5.12542 35.9806 3.87059 35.0556 2.94532C34.1305 2.02006 32.8759 1.50016 31.5675 1.5C30.2592 1.49984 29.0044 2.01942 28.0791 2.94445L4.72341 26.3057C4.3171 26.7109 4.01661 27.2097 3.84841 27.7583L1.53664 35.3744C1.49141 35.5258 1.48799 35.6866 1.52675 35.8397C1.56551 35.9928 1.645 36.1326 1.75678 36.2442C1.86857 36.3558 2.00848 36.4351 2.16167 36.4736C2.31486 36.5121 2.47562 36.5084 2.6269 36.463L10.2447 34.1529C10.7928 33.9862 11.2915 33.6876 11.6972 33.2831L35.0547 9.92186Z" stroke="#675844" stroke-width="3" stroke-linecap="round" stroke-linejoin="round"/>
</svg>
