<svg width="22" height="22" viewBox="0 0 22 22" fill="none" xmlns="http://www.w3.org/2000/svg">
<path d="M9.73352 4.07599C12.0629 3.7984 14.4191 4.29081 16.4424 5.47804C18.4656 6.66527 20.0447 8.48207 20.9385 10.651C21.0219 10.8755 21.0219 11.1225 20.9385 11.347C20.571 12.238 20.0853 13.0755 19.4945 13.837" stroke="#675844" stroke-width="2" stroke-linecap="round" stroke-linejoin="round"/>
<path d="M13.0845 13.158C12.5187 13.7045 11.7609 14.0069 10.9743 14C10.1877 13.9932 9.4353 13.6777 8.87908 13.1215C8.32285 12.5652 8.00735 11.8128 8.00051 11.0262C7.99367 10.2396 8.29606 9.48182 8.84253 8.91602" stroke="#675844" stroke-width="2" stroke-linecap="round" stroke-linejoin="round"/>
<path d="M16.4795 16.499C15.153 17.2848 13.673 17.776 12.1399 17.9394C10.6068 18.1028 9.05646 17.9345 7.59414 17.4459C6.13182 16.9573 4.7917 16.1599 3.66472 15.1078C2.53773 14.0556 1.65026 12.7734 1.06251 11.348C0.979165 11.1235 0.979165 10.8765 1.06251 10.652C1.94914 8.50186 3.50918 6.69725 5.50851 5.509" stroke="#675844" stroke-width="2" stroke-linecap="round" stroke-linejoin="round"/>
<path d="M1.00052 1L21.0005 21" stroke="#675844" stroke-width="2" stroke-linecap="round" stroke-linejoin="round"/>
</svg>
