<svg width="41" height="38" viewBox="0 0 41 38" fill="none" xmlns="http://www.w3.org/2000/svg">
<path d="M1.5 12.8462C1.50004 10.5573 2.14143 8.32222 3.33945 6.4362C4.53747 4.55018 6.23577 3.10194 8.21004 2.28276C10.1843 1.46358 12.3417 1.31199 14.3972 1.84802C16.4527 2.38405 18.3097 3.58248 19.7228 5.28503C19.8224 5.40024 19.9427 5.49209 20.0764 5.55489C20.2101 5.61769 20.3542 5.65009 20.4999 5.65009C20.6457 5.65009 20.7898 5.61769 20.9235 5.55489C21.0572 5.49209 21.1775 5.40024 21.277 5.28503C22.6858 3.57142 24.5432 2.36292 26.602 1.82037C28.6609 1.27783 30.8235 1.42698 32.8022 2.24797C34.7808 3.06896 36.4815 4.52284 37.678 6.41612C38.8745 8.3094 39.51 10.5523 39.4999 12.8462C39.4999 17.5565 36.6499 21.0738 33.7999 24.1592L23.3651 35.0876C23.0111 35.5277 22.5746 35.8813 22.0846 36.1249C21.5946 36.3684 21.0624 36.4962 20.5233 36.4999C19.9842 36.5036 19.4505 36.3831 18.9577 36.1463C18.4649 35.9095 18.0243 35.5619 17.6651 35.1266L7.19998 24.1592C4.34999 21.0738 1.5 17.5771 1.5 12.8462Z" fill="#FFC2CF" stroke="#FF84A4" stroke-width="3" stroke-linecap="round" stroke-linejoin="round"/>
<path d="M28.25 13.5181L18.993 22.7751C18.8055 22.9625 18.5512 23.0679 18.286 23.0679C18.0208 23.0679 17.7665 22.9625 17.579 22.7751L12.75 17.9461" stroke="#675844" stroke-width="1.5" stroke-linecap="round" stroke-linejoin="round"/>
</svg>
