<svg width="69" height="58" viewBox="0 0 69 58" fill="none" xmlns="http://www.w3.org/2000/svg">
<path d="M1.5 19.3298C1.50007 15.7329 2.61405 12.2206 4.69483 9.25689C6.7756 6.29314 9.72528 4.01734 13.1543 2.73005C16.5833 1.44277 20.3303 1.20456 23.9004 2.04689C27.4705 2.88923 30.6958 4.77247 33.1502 7.4479C33.3231 7.62895 33.5321 7.77329 33.7642 7.87197C33.9964 7.97065 34.2468 8.02157 34.4999 8.02157C34.753 8.02157 35.0034 7.97065 35.2355 7.87197C35.4677 7.77329 35.6767 7.62895 35.8496 7.4479C38.2963 4.75508 41.5223 2.85601 45.0983 2.00344C48.6742 1.15088 52.4304 1.38525 55.8669 2.67538C59.3035 3.9655 62.2574 6.25018 64.3355 9.22533C66.4136 12.2005 67.5173 15.725 67.4998 19.3298C67.4998 26.7317 62.5498 32.2589 57.5998 37.1073L39.4763 54.2804C38.8614 54.9722 38.1033 55.5278 37.2522 55.9105C36.4012 56.2932 35.4768 56.4941 34.5405 56.4999C33.6041 56.5057 32.6771 56.3163 31.8213 55.9442C30.9654 55.5721 30.2001 55.0259 29.5763 54.3419L11.4 37.1073C6.44998 32.2589 1.5 26.764 1.5 19.3298Z" fill="#FFC2CF" stroke="#FF84A4" stroke-width="3" stroke-linecap="round" stroke-linejoin="round"/>
<g clip-path="url(#clip0_25_13)">
<path d="M28.3252 23.4438C29.3079 22.4203 29.2717 20.7678 28.2445 19.7528C27.2173 18.7377 25.588 18.7446 24.6053 19.768C23.6227 20.7915 23.6588 22.444 24.686 23.4591C25.7133 24.4741 27.3426 24.4673 28.3252 23.4438Z" fill="#B3E8E8" stroke="#93BFBF" stroke-width="2" stroke-linecap="round" stroke-linejoin="round"/>
<path d="M38.2724 20.6336C39.2551 19.6101 39.2189 17.9576 38.1917 16.9425C37.1645 15.9275 35.5352 15.9343 34.5525 16.9578C33.5699 17.9813 33.606 19.6338 34.6333 20.6488C35.6605 21.6639 37.2898 21.657 38.2724 20.6336Z" fill="#B3E8E8" stroke="#93BFBF" stroke-width="2" stroke-linecap="round" stroke-linejoin="round"/>
<path d="M47.4914 26.132C48.474 25.1085 48.4379 23.456 47.4107 22.4409C46.3835 21.4259 44.7542 21.4327 43.7715 22.4562C42.7889 23.4797 42.825 25.1322 43.8522 26.1472C44.8794 27.1623 46.5088 27.1554 47.4914 26.132Z" fill="#B3E8E8" stroke="#93BFBF" stroke-width="2" stroke-linecap="round" stroke-linejoin="round"/>
<path d="M30.2659 28.9727C30.85 28.3643 31.5487 27.8807 32.322 27.5496C33.0954 27.2184 33.9282 27.0461 34.773 27.0426C35.6179 27.039 36.4581 27.2043 37.2458 27.5289C38.0335 27.8536 38.7532 28.3312 39.3638 28.9346L42.6187 32.1509C43.3963 32.9198 43.8817 33.9408 43.9868 35.0289C44.0919 36.117 43.8099 37.2003 43.1918 38.0825C42.5736 38.9647 41.6603 39.5876 40.6172 39.8383C39.5741 40.0889 38.4703 39.9508 37.5055 39.449C35.8457 38.5792 34.2065 38.5845 32.588 39.465C31.6458 39.9746 30.5488 40.122 29.4954 39.8807C28.442 39.6393 27.5018 39.025 26.845 38.149C26.1881 37.2731 25.858 36.1932 25.9144 35.1049C25.9707 34.0166 26.4098 32.9917 27.1522 32.2157L30.2659 28.9727Z" fill="#B3E8E8" stroke="#93BFBF" stroke-width="2" stroke-linecap="round" stroke-linejoin="round"/>
</g>
<defs>
<clipPath id="clip0_25_13">
<rect width="30.8281" height="31.3777" rx="6" transform="matrix(0.692575 -0.721346 0.71131 0.702878 12.9596 28.1224)" fill="white"/>
</clipPath>
</defs>
</svg>
