<svg width="44" height="44" viewBox="0 0 44 44" fill="none" xmlns="http://www.w3.org/2000/svg">
<path d="M18.536 40.0004C18.8871 40.6084 19.392 41.1133 20.0001 41.4644C20.6082 41.8154 21.2979 42.0002 22 42.0002C22.7021 42.0002 23.3919 41.8154 23.9999 41.4644C24.608 41.1133 25.1129 40.6084 25.464 40.0004" stroke="#675844" stroke-width="4" stroke-linecap="round" stroke-linejoin="round"/>
<path d="M42 14.0002C42 9.40015 40.4 5.40014 38 2.00012" stroke="#675844" stroke-width="4" stroke-linecap="round" stroke-linejoin="round"/>
<path d="M4.524 28.6522C4.26273 28.9386 4.09031 29.2947 4.02771 29.6773C3.96512 30.0598 4.01504 30.4523 4.17142 30.807C4.32779 31.1617 4.58387 31.4634 4.90851 31.6752C5.23316 31.887 5.61236 32 6 32.0003H38C38.3876 32.0004 38.7669 31.8879 39.0917 31.6765C39.4166 31.465 39.673 31.1637 39.8298 30.8093C39.9866 30.4548 40.037 30.0624 39.9749 29.6798C39.9128 29.2972 39.7409 28.9409 39.48 28.6542C36.82 25.9122 34 22.9982 34 14.0002C34 10.8176 32.7357 7.7653 30.4853 5.51486C28.2349 3.26441 25.1826 2.00012 22 2.00012C18.8174 2.00012 15.7652 3.26441 13.5147 5.51486C11.2643 7.7653 10 10.8176 10 14.0002C10 22.9982 7.178 25.9122 4.524 28.6522Z" stroke="#675844" stroke-width="4" stroke-linecap="round" stroke-linejoin="round"/>
<path d="M6 2.00012C3.6 5.40014 2 9.40015 2 14.0002" stroke="#675844" stroke-width="4" stroke-linecap="round" stroke-linejoin="round"/>
</svg>
