<svg width="38" height="38" viewBox="0 0 38 38" fill="none" xmlns="http://www.w3.org/2000/svg">
<path d="M1.5 34.6614C1.49975 32.2778 2.04865 29.9297 3.09963 27.8185C4.1506 25.7073 5.6723 23.8959 7.53422 22.5396C9.39615 21.1834 11.5428 20.3229 13.79 20.0317C16.0372 19.7406 18.3179 20.0276 20.4366 20.8681" stroke="#675844" stroke-width="3" stroke-linecap="round" stroke-linejoin="round"/>
<path d="M35.4112 26.6032C36.1083 25.8693 36.5 24.8739 36.5 23.836C36.5 22.7982 36.1083 21.8028 35.4112 21.0689C34.7141 20.335 33.7686 19.9227 32.7827 19.9227C31.7969 19.9227 30.8514 20.335 30.1543 21.0689L23.1368 28.4602C22.7208 28.898 22.4162 29.4391 22.2513 30.0335L20.7866 35.3209C20.7427 35.4794 20.74 35.6475 20.779 35.8075C20.8179 35.9674 20.897 36.1134 21.0079 36.2302C21.1188 36.347 21.2575 36.4302 21.4094 36.4712C21.5614 36.5122 21.721 36.5094 21.8716 36.4631L26.894 34.9211C27.4587 34.7476 27.9727 34.4269 28.3885 33.9889L35.4112 26.6032Z" stroke="#675844" stroke-width="3" stroke-linecap="round" stroke-linejoin="round"/>
<path d="M15.4999 19.923C20.3323 19.923 24.2498 15.7988 24.2498 10.7115C24.2498 5.62412 20.3323 1.5 15.4999 1.5C10.6674 1.5 6.74994 5.62412 6.74994 10.7115C6.74994 15.7988 10.6674 19.923 15.4999 19.923Z" stroke="#675844" stroke-width="3" stroke-linecap="round" stroke-linejoin="round"/>
</svg>
