<svg width="56" height="62" viewBox="0 0 56 62" fill="none" xmlns="http://www.w3.org/2000/svg">
<path d="M21.109 7.74922C21.272 6.03938 22.0686 4.45156 23.3432 3.29595C24.6177 2.14035 26.2786 1.5 28.0015 1.5C29.7243 1.5 31.3852 2.14035 32.6598 3.29595C33.9343 4.45156 34.731 6.03938 34.894 7.74922C34.992 8.85377 35.3554 9.91851 35.9536 10.8533C36.5518 11.7882 37.3671 12.5656 38.3305 13.1197C39.2939 13.6739 40.377 13.9885 41.4882 14.0369C42.5994 14.0854 43.706 13.8662 44.7142 13.398C46.2797 12.6894 48.0537 12.5868 49.6909 13.1103C51.3281 13.6338 52.7113 14.7458 53.5714 16.23C54.4315 17.7142 54.7069 19.4643 54.344 21.1397C53.9811 22.8152 53.0059 24.2961 51.6082 25.2942C50.698 25.9309 49.955 26.7768 49.4421 27.7603C48.9292 28.7438 48.6614 29.836 48.6614 30.9444C48.6614 32.0529 48.9292 33.1451 49.4421 34.1286C49.955 35.1121 50.698 35.958 51.6082 36.5947C53.0059 37.5928 53.9811 39.0737 54.344 40.7491C54.7069 42.4246 54.4315 44.1747 53.5714 45.6589C52.7113 47.1431 51.3281 48.2551 49.6909 48.7786C48.0537 49.3021 46.2797 49.1995 44.7142 48.4909C43.706 48.0227 42.5994 47.8035 41.4882 47.852C40.377 47.9004 39.2939 48.215 38.3305 48.7692C37.3671 49.3233 36.5518 50.1007 35.9536 51.0355C35.3554 51.9704 34.992 53.0351 34.894 54.1397C34.731 55.8495 33.9343 57.4373 32.6598 58.5929C31.3852 59.7485 29.7243 60.3889 28.0015 60.3889C26.2786 60.3889 24.6177 59.7485 23.3432 58.5929C22.0686 57.4373 21.272 55.8495 21.109 54.1397C21.0112 53.0347 20.6477 51.9696 20.0493 51.0344C19.451 50.0992 18.6353 49.3216 17.6715 48.7674C16.7077 48.2132 15.6242 47.8987 14.5126 47.8505C13.401 47.8024 12.2941 48.0221 11.2858 48.4909C9.72026 49.1995 7.94628 49.3021 6.3091 48.7786C4.67192 48.2551 3.28868 47.1431 2.42859 45.6589C1.56851 44.1747 1.2931 42.4246 1.65598 40.7491C2.01887 39.0737 2.99407 37.5928 4.3918 36.5947C5.30198 35.958 6.04497 35.1121 6.5579 34.1286C7.07083 33.1451 7.33862 32.0529 7.33862 30.9444C7.33862 29.836 7.07083 28.7438 6.5579 27.7603C6.04497 26.7768 5.30198 25.9309 4.3918 25.2942C2.99603 24.2956 2.02255 22.8153 1.66055 21.141C1.29854 19.4667 1.57387 17.718 2.43304 16.2348C3.2922 14.7516 4.67381 13.6398 6.30937 13.1155C7.94492 12.5912 9.71758 12.6919 11.2828 13.398C12.2911 13.8662 13.3976 14.0854 14.5088 14.0369C15.62 13.9885 16.7031 13.6739 17.6665 13.1197C18.6299 12.5656 19.4452 11.7882 20.0434 10.8533C20.6416 9.91851 21.0051 8.85377 21.1031 7.74922" stroke="#675844" stroke-width="3" stroke-linecap="round" stroke-linejoin="round"/>
<path d="M27.9998 39.7778C32.8784 39.7778 36.8332 35.8229 36.8332 30.9444C36.8332 26.0659 32.8784 22.1111 27.9998 22.1111C23.1213 22.1111 19.1665 26.0659 19.1665 30.9444C19.1665 35.8229 23.1213 39.7778 27.9998 39.7778Z" stroke="#675844" stroke-width="3" stroke-linecap="round" stroke-linejoin="round"/>
</svg>
